<svg width="50" height="50" viewBox="0 0 50 50" fill="none" xmlns="http://www.w3.org/2000/svg">
<path d="M10 1H40C44.9706 1 49 5.02944 49 10V40C49 44.9706 44.9706 49 40 49H10C5.02944 49 1 44.9706 1 40V10C1 5.02944 5.02944 1 10 1Z" fill="#D5DCE4" stroke="#0060CE" stroke-width="2"/>
<path d="M33.332 38.3327H41.6654V34.9993C41.6653 33.9602 41.3415 32.947 40.7389 32.1004C40.1364 31.2538 39.2851 30.616 38.3033 30.2756C37.3215 29.9352 36.2581 29.9091 35.2608 30.201C34.2635 30.4929 33.382 31.0883 32.7387 31.9043M33.332 38.3327H16.6654M33.332 38.3327V34.9993C33.332 33.906 33.122 32.861 32.7387 31.9043M32.7387 31.9043C32.1198 30.3576 31.0516 29.0318 29.672 28.0979C28.2924 27.164 26.6647 26.6648 24.9987 26.6648C23.3327 26.6648 21.705 27.164 20.3254 28.0979C18.9458 29.0318 17.8776 30.3576 17.2587 31.9043M16.6654 38.3327H8.33203V34.9993C8.33211 33.9602 8.65592 32.947 9.25847 32.1004C9.86101 31.2538 10.7123 30.616 11.6941 30.2756C12.6759 29.9352 13.7393 29.9091 14.7366 30.201C15.7339 30.4929 16.6154 31.0883 17.2587 31.9043M16.6654 38.3327V34.9993C16.6654 33.906 16.8754 32.861 17.2587 31.9043M29.9987 16.666C29.9987 17.9921 29.4719 19.2639 28.5342 20.2015C27.5965 21.1392 26.3248 21.666 24.9987 21.666C23.6726 21.666 22.4008 21.1392 21.4632 20.2015C20.5255 19.2639 19.9987 17.9921 19.9987 16.666C19.9987 15.3399 20.5255 14.0682 21.4632 13.1305C22.4008 12.1928 23.6726 11.666 24.9987 11.666C26.3248 11.666 27.5965 12.1928 28.5342 13.1305C29.4719 14.0682 29.9987 15.3399 29.9987 16.666ZM39.9987 21.666C39.9987 22.5501 39.6475 23.3979 39.0224 24.023C38.3973 24.6482 37.5494 24.9993 36.6654 24.9993C35.7813 24.9993 34.9335 24.6482 34.3083 24.023C33.6832 23.3979 33.332 22.5501 33.332 21.666C33.332 20.782 33.6832 19.9341 34.3083 19.309C34.9335 18.6839 35.7813 18.3327 36.6654 18.3327C37.5494 18.3327 38.3973 18.6839 39.0224 19.309C39.6475 19.9341 39.9987 20.782 39.9987 21.666ZM16.6654 21.666C16.6654 22.5501 16.3142 23.3979 15.6891 24.023C15.0639 24.6482 14.2161 24.9993 13.332 24.9993C12.448 24.9993 11.6001 24.6482 10.975 24.023C10.3499 23.3979 9.9987 22.5501 9.9987 21.666C9.9987 20.782 10.3499 19.9341 10.975 19.309C11.6001 18.6839 12.448 18.3327 13.332 18.3327C14.2161 18.3327 15.0639 18.6839 15.6891 19.309C16.3142 19.9341 16.6654 20.782 16.6654 21.666Z" stroke="#0060CE" stroke-width="2" stroke-linecap="round" stroke-linejoin="round"/>
</svg>
