<svg width="50" height="50" viewBox="0 0 50 50" fill="none" xmlns="http://www.w3.org/2000/svg">
<path d="M10 1H40C44.9706 1 49 5.02944 49 10V40C49 44.9706 44.9706 49 40 49H10C5.02944 49 1 44.9706 1 40V10C1 5.02944 5.02944 1 10 1Z" fill="#D5DCE4" stroke="#0060CE" stroke-width="2"/>
<path d="M25.3333 24.6667C23.4923 24.6667 22 23.1743 22 21.3333C22 19.4924 23.4923 18 25.3333 18C27.1743 18 28.6667 19.4924 28.6667 21.3333C28.6667 23.1743 27.1743 24.6667 25.3333 24.6667Z" fill="#0060CE"/>
<path fill-rule="evenodd" clip-rule="evenodd" d="M23.6667 34.5635C17.0895 33.7433 12 28.1327 12 21.3333C12 13.9695 17.9695 8 25.3333 8C32.6972 8 38.6667 13.9695 38.6667 21.3333C38.6667 28.1327 33.5772 33.7433 27 34.5635V38.0193C33.5772 38.1732 38.6667 39.2252 38.6667 40.5C38.6667 41.8807 32.6972 43 25.3333 43C17.9695 43 12 41.8807 12 40.5C12 39.2252 17.0895 38.1732 23.6667 38.0193V34.5635ZM35.3333 21.3333C35.3333 26.8562 30.8562 31.3333 25.3333 31.3333C19.8105 31.3333 15.3333 26.8562 15.3333 21.3333C15.3333 15.8105 19.8105 11.3333 25.3333 11.3333C30.8562 11.3333 35.3333 15.8105 35.3333 21.3333Z" fill="#0060CE"/>
</svg>
