<svg width="50" height="50" viewBox="0 0 50 50" fill="none" xmlns="http://www.w3.org/2000/svg">
<rect width="50" height="50" rx="10" fill="#D5DCE4"/>
<path d="M0 10C0 4.47715 4.47715 0 10 0H40C45.5228 0 50 4.47715 50 10V10H0V10Z" fill="#0060CE"/>
<circle cx="8" cy="5" r="2" fill="#D9D9D9"/>
<rect x="16" y="3" width="27" height="4" rx="2" fill="#D9D9D9"/>
<path d="M21.25 23H28.75V20.5C28.75 19.4583 28.3854 18.5729 27.6563 17.8438C26.9271 17.1146 26.0417 16.75 25 16.75C23.9583 16.75 23.0729 17.1146 22.3438 17.8438C21.6146 18.5729 21.25 19.4583 21.25 20.5V23ZM32.5 41.75C30.7708 41.75 29.2967 41.1404 28.0775 39.9213C26.8583 38.7021 26.2492 37.2283 26.25 35.5C26.25 33.7708 26.8596 32.2967 28.0788 31.0775C29.2979 29.8583 30.7717 29.2492 32.5 29.25C34.2292 29.25 35.7033 29.8596 36.9225 31.0788C38.1417 32.2979 38.7508 33.7717 38.75 35.5C38.75 37.2292 38.1404 38.7033 36.9213 39.9225C35.7021 41.1417 34.2283 41.7508 32.5 41.75ZM25.3125 40.5H17.5C16.8125 40.5 16.2238 40.255 15.7338 39.765C15.2438 39.275 14.9992 38.6867 15 38V25.5C15 24.8125 15.245 24.2238 15.735 23.7338C16.225 23.2438 16.8133 22.9992 17.5 23H18.75V20.5C18.75 18.7708 19.3596 17.2967 20.5788 16.0775C21.7979 14.8583 23.2717 14.2492 25 14.25C26.7292 14.25 28.2033 14.8596 29.4225 16.0788C30.6417 17.2979 31.2508 18.7717 31.25 20.5V23H32.5C33.1875 23 33.7763 23.245 34.2663 23.735C34.7563 24.225 35.0008 24.8133 35 25.5V27.125C34.5833 26.9792 34.1667 26.88 33.75 26.8275C33.3333 26.775 32.9167 26.7492 32.5 26.75C30.0625 26.75 27.9946 27.5992 26.2963 29.2975C24.5979 30.9958 23.7492 33.0633 23.75 35.5C23.75 36.3958 23.8908 37.2654 24.1725 38.1087C24.4542 38.9521 24.8342 39.7492 25.3125 40.5ZM32.5 35.5C33.0208 35.5 33.4638 35.3175 33.8288 34.9525C34.1938 34.5875 34.3758 34.145 34.375 33.625C34.375 33.1042 34.1925 32.6613 33.8275 32.2963C33.4625 31.9313 33.02 31.7492 32.5 31.75C31.9792 31.75 31.5363 31.9325 31.1713 32.2975C30.8063 32.6625 30.6242 33.105 30.625 33.625C30.625 34.1458 30.8075 34.5887 31.1725 34.9537C31.5375 35.3187 31.98 35.5008 32.5 35.5ZM32.5 39.25C33.125 39.25 33.7083 39.1042 34.25 38.8125C34.7917 38.5208 35.2396 38.1146 35.5938 37.5937C35.1146 37.3021 34.6146 37.0883 34.0938 36.9525C33.5729 36.8167 33.0417 36.7492 32.5 36.75C31.9583 36.75 31.4271 36.8175 30.9063 36.9525C30.3854 37.0875 29.8854 37.3012 29.4063 37.5937C29.7604 38.1146 30.2083 38.5208 30.75 38.8125C31.2917 39.1042 31.875 39.25 32.5 39.25Z" fill="#0060CE"/>
</svg>
