<svg width="50" height="50" viewBox="0 0 50 50" fill="none" xmlns="http://www.w3.org/2000/svg">
<rect width="50" height="50" rx="25" fill="#D5DCE4"/>
<path d="M15.75 11.5H12.5V8.25H38.5V11.5H35.25V14.75C35.25 17.3751 33.9237 19.4864 32.2537 21.2121C31.1114 22.3924 29.7217 23.4795 28.3127 24.5C29.7217 25.5205 31.1114 26.6076 32.2537 27.7879C33.9237 29.5136 35.25 31.625 35.25 34.25V37.5H38.5V40.75H12.5V37.5H15.75V34.25C15.75 31.625 17.0763 29.5136 18.7463 27.7879C19.8886 26.6076 21.2783 25.5205 22.6873 24.5C21.2783 23.4795 19.8886 22.3924 18.7463 21.2121C17.0763 19.4864 15.75 17.3751 15.75 14.75V11.5ZM19 11.5V14.75C19 16.1874 19.705 17.5293 21.0818 18.952C22.263 20.1726 23.8016 21.3147 25.5 22.5144C27.1984 21.3147 28.737 20.1726 29.9182 18.952C31.2951 17.5293 32 16.1874 32 14.75V11.5H19ZM25.5 26.4856C23.8016 27.6853 22.263 28.8274 21.0818 30.0481C19.705 31.4708 19 32.8125 19 34.25V37.5H32V34.25C32 32.8125 31.2951 31.4708 29.9182 30.0481C28.737 28.8274 27.1984 27.6853 25.5 26.4856Z" fill="#0060CE"/>
<circle cx="33.7336" cy="35.3332" r="6.8" fill="#D5DCE4" stroke="#0060CE" stroke-width="2"/>
<line x1="33.896" y1="35.343" x2="37.8086" y2="34.5113" stroke="#0060CE"/>
</svg>
