<svg width="216" height="414" viewBox="0 0 216 414" fill="none" xmlns="http://www.w3.org/2000/svg">
<path d="M101.567 0L48.4866 22.7111L94.6952 57.3246L101.567 0ZM73.5607 221.5L69.0572 223.672L73.5607 221.5ZM5.99825 204.5L10.9597 203.881L5.99825 204.5ZM70.6763 32.9025C57.9309 48.9098 44.6981 70.423 41.1956 101.291C37.7 132.098 43.9599 171.641 69.0572 223.672L78.0641 219.328C53.5327 168.469 47.9065 130.844 51.1319 102.418C54.3503 74.0537 66.4455 54.2702 78.4994 39.1314L70.6763 32.9025ZM69.0572 223.672C84.248 255.166 120.877 268.57 153.164 263.001C169.435 260.194 184.948 252.545 196.409 239.653C207.912 226.715 215.062 208.799 215.062 186H205.062C205.062 206.601 198.651 222.081 188.936 233.009C179.179 243.983 165.818 250.67 151.464 253.146C122.501 258.142 90.8797 245.897 78.0641 219.328L69.0572 223.672ZM215.062 186C215.062 156.827 200.448 137.589 178.933 126.998C157.774 116.582 130.174 114.582 103.415 118.596C76.6106 122.617 49.9522 132.774 30.5119 147.462C11.1087 162.122 -1.85412 181.964 1.03677 205.119L10.9597 203.881C8.68652 185.673 18.6497 168.958 36.5402 155.441C54.3937 141.952 79.3968 132.311 104.899 128.485C130.448 124.652 155.8 126.756 174.517 135.97C192.878 145.008 205.062 160.923 205.062 186H215.062ZM1.03677 205.119C3.36549 223.772 13.7363 252.438 34.2659 274.01C55.0597 295.858 86.2396 310.324 129.184 299.858L126.816 290.142C87.698 299.676 60.093 286.642 41.5097 267.115C22.662 247.312 13.0631 220.728 10.9597 203.881L1.03677 205.119ZM129.184 299.858C139.163 297.426 146.428 296.812 151.624 297.407C156.715 297.99 159.515 299.684 161.182 301.701C162.932 303.818 164.019 307 164.257 311.623C164.496 316.239 163.863 321.807 162.644 328.187C161.43 334.541 159.689 341.434 157.826 348.688C155.977 355.889 154.01 363.435 152.422 370.878C149.288 385.569 147.371 400.891 151.289 413.485L160.838 410.515C157.756 400.609 159.089 387.556 162.202 372.965C163.738 365.768 165.645 358.447 167.512 351.175C169.366 343.957 171.184 336.771 172.466 330.063C173.743 323.381 174.543 316.901 174.244 311.107C173.945 305.321 172.525 299.729 168.891 295.331C165.173 290.832 159.714 288.268 152.761 287.472C145.913 286.688 137.353 287.574 126.816 290.142L129.184 299.858Z" fill="black"/>
</svg>
