<svg width="50" height="50" viewBox="0 0 50 50" fill="none" xmlns="http://www.w3.org/2000/svg">
<path d="M29.168 6.80977C29.168 5.34935 27.9846 4.16602 26.5242 4.16602H23.4805C22.018 4.16602 20.8346 5.34935 20.8346 6.80977C20.8346 8.01393 20.0096 9.04727 18.8867 9.48893C18.7096 9.55977 18.5326 9.63476 18.3596 9.70976C17.2534 10.1889 15.9388 10.0431 15.0846 9.19102C14.5889 8.69562 13.9167 8.41734 13.2159 8.41734C12.515 8.41734 11.8429 8.69562 11.3471 9.19102L9.19297 11.3452C8.69758 11.8409 8.4193 12.5131 8.4193 13.2139C8.4193 13.9148 8.69758 14.5869 9.19297 15.0827C10.0471 15.9368 10.193 17.2493 9.70963 18.3577C9.6337 18.5321 9.56077 18.7078 9.49088 18.8848C9.04922 20.0077 8.01589 20.8327 6.81172 20.8327C5.3513 20.8327 4.16797 22.016 4.16797 23.4764V26.5223C4.16797 27.9827 5.3513 29.166 6.81172 29.166C8.01589 29.166 9.04922 29.991 9.49088 31.1139C9.56172 31.291 9.63672 31.4681 9.70963 31.641C10.1909 32.7473 10.0451 34.0618 9.19297 34.916C8.69758 35.4118 8.4193 36.0839 8.4193 36.7848C8.4193 37.4856 8.69758 38.1578 9.19297 38.6535L11.3471 40.8077C11.8429 41.3031 12.515 41.5814 13.2159 41.5814C13.9167 41.5814 14.5889 41.3031 15.0846 40.8077C15.9388 39.9535 17.2513 39.8077 18.3596 40.2889C18.5326 40.366 18.7096 40.4389 18.8867 40.5098C20.0096 40.9514 20.8346 41.9848 20.8346 43.1889C20.8346 44.6493 22.018 45.8327 23.4784 45.8327H26.5242C27.9846 45.8327 29.168 44.6493 29.168 43.1889C29.168 41.9848 29.993 40.9514 31.1159 40.5077C31.293 40.4389 31.4701 40.366 31.643 40.291C32.7492 39.8077 34.0638 39.9556 34.9159 40.8077C35.1614 41.0533 35.4529 41.2481 35.7737 41.381C36.0945 41.514 36.4384 41.5824 36.7857 41.5824C37.1329 41.5824 37.4768 41.514 37.7976 41.381C38.1185 41.2481 38.41 41.0533 38.6555 40.8077L40.8096 38.6535C41.305 38.1578 41.5833 37.4856 41.5833 36.7848C41.5833 36.0839 41.305 35.4118 40.8096 34.916C39.9555 34.0618 39.8096 32.7493 40.2909 31.641C40.368 31.4681 40.4409 31.291 40.5117 31.1139C40.9534 29.991 41.9867 29.166 43.1909 29.166C44.6513 29.166 45.8346 27.9827 45.8346 26.5223V23.4785C45.8346 22.0181 44.6513 20.8348 43.1909 20.8348C41.9867 20.8348 40.9534 20.0098 40.5096 18.8868C40.4398 18.7099 40.3669 18.5342 40.2909 18.3598C39.8117 17.2535 39.9575 15.9389 40.8096 15.0848C41.305 14.589 41.5833 13.9169 41.5833 13.216C41.5833 12.5152 41.305 11.843 40.8096 11.3473L38.6555 9.1931C38.1597 8.69771 37.4876 8.41943 36.7867 8.41943C36.0859 8.41943 35.4137 8.69771 34.918 9.1931C34.0638 10.0473 32.7513 10.1931 31.643 9.71185C31.4686 9.6352 31.2928 9.56158 31.1159 9.49102C29.993 9.04727 29.168 8.01393 29.168 6.81185V6.80977Z" stroke="url(#paint0_linear_1561_2853)" stroke-width="4.16667"/>
<path d="M20.3751 20.625C20.3751 19.9288 20.6516 19.2611 21.1439 18.7689C21.6362 18.2766 22.3039 18 23.0001 18H26.9376C27.6338 18 28.3015 18.2766 28.7938 18.7689C29.2861 19.2611 29.5627 19.9288 29.5627 20.625V21.5H20.3751V20.625ZM16 25.4376L24.5379 27.5722C24.677 27.6072 24.8232 27.6072 24.9623 27.5722L33.5002 25.4376V31.1252C33.5002 31.3572 33.408 31.5798 33.2439 31.7439C33.0798 31.908 32.8573 32.0002 32.6252 32.0002H16.875C16.6429 32.0002 16.4204 31.908 16.2563 31.7439C16.0922 31.5798 16 31.3572 16 31.1252V25.4376Z" stroke="url(#paint1_linear_1561_2853)" stroke-width="2" stroke-linecap="round" stroke-linejoin="round"/>
<path d="M33.5002 26.3126V22.375C33.5002 22.1429 33.408 21.9204 33.2439 21.7563C33.0798 21.5922 32.8573 21.5 32.6252 21.5H16.875C16.6429 21.5 16.4204 21.5922 16.2563 21.7563C16.0922 21.9204 16 22.1429 16 22.375V26.3126" stroke="url(#paint2_linear_1561_2853)" stroke-width="2" stroke-linecap="round" stroke-linejoin="round"/>
<path d="M25.8438 24.5625C25.8438 24.8526 25.7285 25.1308 25.5234 25.3359C25.3183 25.541 25.0401 25.6563 24.75 25.6563C24.4599 25.6563 24.1817 25.541 23.9766 25.3359C23.7715 25.1308 23.6562 24.8526 23.6562 24.5625C23.6562 24.2724 23.7715 23.9942 23.9766 23.7891C24.1817 23.584 24.4599 23.4688 24.75 23.4688C25.0401 23.4688 25.3183 23.584 25.5234 23.7891C25.7285 23.9942 25.8438 24.2724 25.8438 24.5625Z" fill="url(#paint3_linear_1561_2853)"/>
<defs>
<linearGradient id="paint0_linear_1561_2853" x1="25.0013" y1="4.16602" x2="25.0013" y2="45.8327" gradientUnits="userSpaceOnUse">
<stop stop-color="#9949FF"/>
<stop offset="1" stop-color="#436CFF"/>
</linearGradient>
<linearGradient id="paint1_linear_1561_2853" x1="24.7501" y1="18" x2="24.7501" y2="32.0002" gradientUnits="userSpaceOnUse">
<stop stop-color="#9949FF"/>
<stop offset="1" stop-color="#436CFF"/>
</linearGradient>
<linearGradient id="paint2_linear_1561_2853" x1="24.7501" y1="21.5" x2="24.7501" y2="26.3126" gradientUnits="userSpaceOnUse">
<stop stop-color="#9949FF"/>
<stop offset="1" stop-color="#436CFF"/>
</linearGradient>
<linearGradient id="paint3_linear_1561_2853" x1="24.75" y1="23.4688" x2="24.75" y2="25.6563" gradientUnits="userSpaceOnUse">
<stop stop-color="#9949FF"/>
<stop offset="1" stop-color="#436CFF"/>
</linearGradient>
</defs>
</svg>
