<svg width="50" height="50" viewBox="0 0 50 50" fill="none" xmlns="http://www.w3.org/2000/svg">
<g clip-path="url(#clip0_1561_2848)">
<path d="M14.2983 36.8746C13.6864 36.8755 13.0955 36.6512 12.6383 36.2446L-0.0117188 24.9996L13.3408 13.1296C13.8385 12.7038 14.4834 12.4904 15.1368 12.5352C15.7903 12.5799 16.4 12.8793 16.835 13.369C17.27 13.8587 17.4954 14.4995 17.4628 15.1537C17.4303 15.8078 17.1423 16.4231 16.6608 16.8671L7.51328 24.9996L15.9583 32.5046C16.3377 32.8412 16.6057 33.2853 16.7268 33.7779C16.8478 34.2705 16.8162 34.7882 16.6361 35.2624C16.456 35.7365 16.1359 36.1447 15.7183 36.4326C15.3008 36.7206 14.8055 36.8747 14.2983 36.8746ZM36.6608 36.8696L50.0133 24.9996L37.3633 13.7546C36.8677 13.3143 36.2174 13.089 35.5557 13.1281C34.8939 13.1673 34.2748 13.4677 33.8345 13.9633C33.3943 14.459 33.1689 15.1092 33.2081 15.771C33.2472 16.4327 33.5477 17.0518 34.0433 17.4921L42.4883 24.9996L33.3408 33.1296C32.8448 33.5699 32.5441 34.1891 32.5047 34.8511C32.4653 35.5131 32.6905 36.1636 33.1308 36.6596C33.571 37.1555 34.1903 37.4563 34.8523 37.4957C35.5143 37.5351 36.1648 37.3099 36.6608 36.8696ZM24.9658 40.4121L29.9658 10.4121C30.0297 10.0842 30.0273 9.74687 29.9587 9.41995C29.89 9.09304 29.7566 8.78319 29.5662 8.50871C29.3758 8.23424 29.1323 8.0007 28.8502 7.8219C28.568 7.64309 28.2529 7.52265 27.9234 7.46768C27.5939 7.41271 27.2568 7.42432 26.9318 7.50185C26.6069 7.57937 26.3008 7.72122 26.0316 7.91902C25.7624 8.11683 25.5356 8.36657 25.3646 8.6535C25.1936 8.94043 25.0817 9.25873 25.0358 9.58959L20.0358 39.5896C19.9718 39.9175 19.9743 40.2548 20.0429 40.5817C20.1115 40.9087 20.245 41.2185 20.4354 41.493C20.6258 41.7674 20.8692 42.001 21.1514 42.1798C21.4335 42.3586 21.7487 42.479 22.0782 42.534C22.4076 42.589 22.7448 42.5774 23.0697 42.4998C23.3947 42.4223 23.7008 42.2805 23.9699 42.0827C24.2391 41.8849 24.4659 41.6351 24.637 41.3482C24.808 41.0613 24.9198 40.743 24.9658 40.4121Z" fill="url(#paint0_linear_1561_2848)"/>
</g>
<defs>
<linearGradient id="paint0_linear_1561_2848" x1="25.0008" y1="7.43359" x2="25.0008" y2="42.5681" gradientUnits="userSpaceOnUse">
<stop stop-color="#9949FF"/>
<stop offset="1" stop-color="#436CFF"/>
</linearGradient>
<clipPath id="clip0_1561_2848">
<rect width="50" height="50" fill="white"/>
</clipPath>
</defs>
</svg>
