<svg width="150" height="46" viewBox="0 0 150 46" fill="none" xmlns="http://www.w3.org/2000/svg">
<g clip-path="url(#clip0_1585_943)">
<path d="M51.0515 13.565L41.5195 22.8086L50.7631 32.3406L60.2951 23.097L51.0515 13.565Z" fill="#0060CE"/>
<path d="M41.5203 22.8072L31.9883 32.0508L41.2319 41.5828L50.7639 32.3392L41.5203 22.8072Z" fill="#009BFF"/>
<path d="M41.232 41.5851C38.7041 44.0366 35.306 45.3835 31.785 45.3297C28.2641 45.2758 24.9087 43.8255 22.457 41.2978L31.9889 32.0547L41.232 41.5851Z" fill="#0060CE"/>
<path d="M41.8093 4.03374L32.2773 13.2773L41.5209 22.8093L51.0529 13.5657L41.8093 4.03374Z" fill="#009BFF"/>
<path d="M22.7468 22.5201L13.2148 31.7637L22.4584 41.2957L31.9904 32.0521L22.7468 22.5201Z" fill="#009BFF"/>
<path d="M41.8101 4.03291L32.2783 13.276L23.0352 3.74419C25.563 1.29269 28.9612 -0.0542713 32.4821 -0.000397064C36.0031 0.0534772 39.3584 1.50377 41.8101 4.03147V4.03291Z" fill="#0060CE"/>
<path d="M23.0359 3.74468L13.5039 12.9883L22.7475 22.5203L32.2795 13.2767L23.0359 3.74468Z" fill="#009BFF"/>
<path d="M9.532 13.2759L0 22.5195L9.2436 32.0515L18.7756 22.8079L9.532 13.2759Z" fill="#0060CE"/>
<path d="M83.904 7.0332V21.0322H81.0902V11.927L77.3398 21.0322H75.2139L71.4434 11.927V21.0322H68.6367V7.0332H71.8255L76.2783 17.4427L80.7311 7.0332H83.904Z" fill="white"/>
<path d="M86.6149 12.4479C87.0222 11.6197 87.6544 10.9228 88.4391 10.4369C89.2158 9.96751 90.1085 9.72518 91.016 9.73743C91.7718 9.72076 92.5198 9.89307 93.1921 10.2387C93.7785 10.5427 94.2891 10.9747 94.6859 11.5027V9.92273H97.5142V21.0331H94.6859V19.4072C94.2983 19.9511 93.7861 20.3944 93.1921 20.6999C92.5141 21.0508 91.7591 21.2266 90.9959 21.2113C90.0925 21.2213 89.2052 20.972 88.4391 20.4931C87.6552 19.9956 87.0239 19.2912 86.6149 18.4577C86.1529 17.5205 85.9223 16.4861 85.9427 15.4413C85.922 14.4039 86.1526 13.3768 86.6149 12.4479ZM94.2852 13.722C94.0368 13.2533 93.6615 12.864 93.2022 12.5987C92.7578 12.3404 92.2525 12.2055 91.7385 12.208C91.2217 12.2019 90.7132 12.3381 90.2687 12.6015C89.8241 12.865 89.4605 13.2457 89.2176 13.7018C88.932 14.2347 88.79 14.8326 88.8054 15.437C88.7915 16.0471 88.9334 16.6507 89.2176 17.1908C89.4675 17.6652 89.8419 18.0625 90.3007 18.3399C90.7334 18.6034 91.2305 18.7421 91.737 18.7407C92.251 18.7452 92.7568 18.6123 93.2022 18.3557C93.6615 18.0905 94.0368 17.7012 94.2852 17.2325C94.549 16.6852 94.686 16.0855 94.686 15.4779C94.686 14.8704 94.549 14.2707 94.2852 13.7234V13.722Z" fill="white"/>
<path d="M106.843 21.0321L103.072 16.2992V21.0321H100.266V6.19141H103.072V14.6345L106.807 9.92169H110.458L105.564 15.4963L110.498 21.0321H106.843Z" fill="white"/>
<path d="M114.022 20.4992C113.175 20.0326 112.478 19.3353 112.011 18.4883C111.51 17.5664 111.257 16.5297 111.279 15.4805C111.255 14.4268 111.514 13.3859 112.027 12.4655C112.511 11.6163 113.223 10.9197 114.083 10.4546C114.981 9.98657 115.978 9.74219 116.991 9.74219C118.003 9.74219 119.001 9.98657 119.899 10.4546C120.758 10.9197 121.47 11.6163 121.954 12.4655C122.469 13.386 122.728 14.4275 122.705 15.4819C122.727 16.536 122.46 17.5759 121.934 18.4897C121.437 19.3389 120.715 20.0347 119.848 20.5006C118.945 20.9846 117.934 21.2317 116.909 21.2188C115.901 21.2322 114.906 20.9843 114.022 20.4992ZM118.344 18.3935C118.803 18.1347 119.176 17.7478 119.417 17.2803C119.697 16.7232 119.834 16.1051 119.815 15.4819C119.815 14.4286 119.538 13.6146 118.982 13.0401C118.721 12.7642 118.405 12.546 118.054 12.3993C117.704 12.2526 117.327 12.1808 116.947 12.1883C116.57 12.1802 116.195 12.2519 115.848 12.3987C115.501 12.5455 115.188 12.764 114.932 13.0401C114.391 13.6089 114.12 14.4228 114.12 15.4819C114.12 16.541 114.384 17.355 114.911 17.9238C115.163 18.2007 115.472 18.42 115.816 18.567C116.16 18.714 116.532 18.7851 116.907 18.7755C117.411 18.7741 117.906 18.6425 118.344 18.3935Z" fill="white"/>
<path d="M126.575 20.7219C125.899 20.4305 125.309 19.9712 124.86 19.3875C124.447 18.8486 124.206 18.198 124.168 17.5202H126.996C127.022 17.7314 127.092 17.9349 127.201 18.1178C127.31 18.3007 127.455 18.4592 127.628 18.5831C128.026 18.8729 128.51 19.0211 129.001 19.004C129.538 19.004 129.956 18.8967 130.255 18.6822C130.394 18.5946 130.508 18.4732 130.587 18.3295C130.666 18.1858 130.707 18.0245 130.706 17.8606C130.706 17.5001 130.523 17.2286 130.155 17.049C129.589 16.7996 129.001 16.6015 128.4 16.4573C127.707 16.2985 127.027 16.0907 126.364 15.8353C125.838 15.622 125.37 15.285 125.001 14.8528C124.618 14.4114 124.427 13.8162 124.427 13.0674C124.422 12.4639 124.608 11.8744 124.958 11.3825C125.345 10.8482 125.872 10.4319 126.482 10.1803C127.222 9.87002 128.019 9.71928 128.822 9.73786C130.144 9.73786 131.201 10.0687 131.991 10.7304C132.781 11.3921 133.215 12.2846 133.293 13.4078H130.606C130.593 13.2034 130.537 13.004 130.442 12.8226C130.347 12.6411 130.215 12.4818 130.054 12.3549C129.727 12.0945 129.289 11.9643 128.741 11.9643C128.233 11.9643 127.842 12.06 127.568 12.2515C127.438 12.335 127.331 12.451 127.259 12.5879C127.187 12.7249 127.152 12.8783 127.157 13.0329C127.157 13.4073 127.344 13.6917 127.719 13.8861C128.277 14.1449 128.862 14.3433 129.462 14.4779C130.138 14.6371 130.802 14.8435 131.449 15.0956C131.974 15.3123 132.438 15.6529 132.802 16.0881C133.185 16.5363 133.382 17.128 133.394 17.8635C133.402 18.4795 133.216 19.0824 132.862 19.5871C132.476 20.1201 131.948 20.5337 131.338 20.7808C130.604 21.082 129.815 21.2287 129.022 21.2117C128.18 21.2259 127.346 21.0589 126.575 20.7219Z" fill="white"/>
<path d="M71.4434 25.4922V39.4912H68.6367V25.4922H71.4434Z" fill="white"/>
<path d="M83.5761 29.475C84.392 30.31 84.7999 31.4763 84.7999 32.974V39.4923H81.9918V33.3546C81.9918 32.4727 81.7716 31.7943 81.3311 31.3193C80.8906 30.8443 80.2888 30.6049 79.5256 30.6011C78.7499 30.6011 78.1385 30.8405 77.6913 31.3193C77.2441 31.7981 77.02 32.4765 77.0191 33.3546V39.4923H74.2109V28.3819H77.0191V29.7651C77.4006 29.2782 77.8931 28.8896 78.4554 28.6318C79.0555 28.3536 79.7102 28.2132 80.3716 28.221C81.693 28.221 82.7612 28.639 83.5761 29.475Z" fill="white"/>
<path d="M92.565 30.6861H90.6187V39.4912H87.7704V30.6861H86.5078V28.3808H87.7704V27.8191C87.7704 26.4546 88.1582 25.4515 88.9339 24.8099C89.7095 24.1683 90.8797 23.8676 92.4444 23.9079V26.275C91.7626 26.2607 91.2876 26.3741 91.0195 26.6154C90.7523 26.8553 90.6187 27.2905 90.6187 27.9182V28.3808H92.565V30.6861Z" fill="white"/>
<path d="M96.4323 38.9613C95.5853 38.4945 94.8881 37.7972 94.4213 36.9503C93.9197 36.0285 93.6672 34.9918 93.6888 33.9425C93.6675 32.8908 93.9274 31.8525 94.4414 30.9347C94.9254 30.0857 95.6374 29.3891 96.4969 28.9238C97.3951 28.4567 98.3925 28.2129 99.4049 28.2129C100.417 28.2129 101.415 28.4567 102.313 28.9238C103.172 29.3891 103.884 30.0857 104.368 30.9347C104.882 31.8525 105.142 32.8908 105.121 33.9425C105.142 34.9968 104.875 36.0367 104.348 36.9503C103.852 37.8001 103.13 38.496 102.263 38.9613C101.359 39.4419 100.349 39.6865 99.3251 39.6723C98.3157 39.6884 97.3192 39.4435 96.4323 38.9613ZM100.754 36.8555C101.212 36.5964 101.585 36.2096 101.827 35.7423C102.109 35.1833 102.247 34.5626 102.228 33.9368C102.228 32.8834 101.951 32.0695 101.396 31.4949C101.135 31.2191 100.819 31.0008 100.468 30.8539C100.117 30.707 99.7397 30.6347 99.3596 30.6417C98.9832 30.6342 98.6095 30.7062 98.2629 30.8533C97.9163 31.0003 97.6048 31.219 97.3487 31.4949C96.8067 32.0628 96.5362 32.8767 96.5371 33.9368C96.5381 34.9968 96.8019 35.8108 97.3286 36.3786C97.5809 36.6554 97.8897 36.8747 98.2342 37.0217C98.5787 37.1686 98.9507 37.2398 99.3251 37.2304C99.8258 37.2298 100.318 37.1007 100.754 36.8555Z" fill="white"/>
<path d="M110.452 30.686V36.061C110.452 36.4354 110.542 36.7059 110.723 36.8725C110.904 37.0391 111.208 37.1229 111.636 37.1239H112.94V39.491H111.174C108.807 39.491 107.624 38.3419 107.625 36.0437V30.686H106.301V28.3806H107.625V25.6328H110.452V28.3806H112.94V30.686H110.452Z" fill="white"/>
<path d="M125.211 34.7797H117.086C117.152 35.5812 117.432 36.2094 117.927 36.6643C118.424 37.1198 119.079 37.3645 119.753 37.3466C120.796 37.3466 121.537 36.8984 121.978 36.0021H125.007C124.695 37.0586 124.047 37.9845 123.162 38.6393C122.252 39.3288 121.135 39.673 119.812 39.6721C118.809 39.6874 117.819 39.4424 116.939 38.9611C116.098 38.4953 115.409 37.7972 114.954 36.9501C114.463 36.0248 114.216 34.9897 114.236 33.9423C114.213 32.8902 114.454 31.849 114.938 30.9144C115.383 30.0664 116.066 29.3672 116.903 28.9035C117.791 28.4454 118.775 28.2047 119.774 28.2012C120.772 28.1977 121.758 28.4315 122.649 28.8834C123.472 29.3248 124.148 29.9974 124.594 30.8182C125.067 31.7007 125.305 32.6899 125.286 33.691C125.291 34.0553 125.266 34.4195 125.211 34.7797ZM122.384 32.8938C122.39 32.5647 122.323 32.2385 122.187 31.9385C122.052 31.6385 121.852 31.3722 121.602 31.1586C121.08 30.7198 120.416 30.4882 119.734 30.5079C119.091 30.49 118.465 30.7158 117.982 31.1399C117.503 31.5622 117.213 32.1473 117.11 32.8952L122.384 32.8938Z" fill="white"/>
<path d="M127.318 30.9174C127.762 30.076 128.437 29.3786 129.264 28.9065C130.133 28.4195 131.115 28.1716 132.111 28.1883C133.489 28.1883 134.629 28.5325 135.531 29.221C136.433 29.9096 137.036 30.8796 137.339 32.1312H134.323C134.181 31.6759 133.897 31.2784 133.511 30.9979C133.096 30.713 132.6 30.5686 132.096 30.5856C131.733 30.5712 131.371 30.6428 131.04 30.7945C130.709 30.9462 130.418 31.1739 130.192 31.4589C129.724 32.0402 129.489 32.8656 129.489 33.9352C129.489 35.0049 129.724 35.8236 130.192 36.3915C130.418 36.6765 130.709 36.9042 131.04 37.0559C131.371 37.2076 131.733 37.2792 132.096 37.2648C133.233 37.2648 133.975 36.7568 134.323 35.7408H137.339C137.076 36.8783 136.433 37.8918 135.515 38.6135C134.605 39.3231 133.469 39.6774 132.105 39.6765C131.11 39.6953 130.128 39.45 129.258 38.9655C128.432 38.4934 127.757 37.7959 127.312 36.9545C126.844 36.0927 126.61 35.0872 126.611 33.9381C126.588 32.8877 126.831 31.8486 127.318 30.9174Z" fill="white"/>
<path d="M147.914 28.7714C148.576 29.147 149.111 29.7129 149.448 30.3959C149.815 31.1112 149.999 31.9702 149.999 32.9728V39.4911H147.192V33.3534C147.192 32.4715 146.972 31.793 146.53 31.3181C146.089 30.8431 145.487 30.6037 144.725 30.5999C143.949 30.5999 143.338 30.8393 142.891 31.3181C142.443 31.7969 142.221 32.4753 142.223 33.3534V39.4911H139.41V24.6504H142.223V29.7639C142.598 29.2706 143.092 28.8806 143.659 28.6306C144.292 28.3495 144.978 28.2094 145.67 28.2198C146.453 28.2057 147.226 28.3958 147.914 28.7714Z" fill="white"/>
<path d="M143.711 7.46289V8.09346H142.673V11.3627H141.89V8.09346H140.852V7.46289H143.711Z" fill="white"/>
<path d="M148.532 7.46289V11.3627H147.75V8.82602L146.704 11.3627H146.113L145.063 8.82602V11.3627H144.281V7.46289H145.169L146.409 10.3615L147.65 7.46289H148.532Z" fill="white"/>
</g>
<defs>
<clipPath id="clip0_1585_943">
<rect width="150" height="45.3308" fill="white"/>
</clipPath>
</defs>
</svg>
