<svg width="27" height="27" viewBox="0 0 27 27" fill="none" xmlns="http://www.w3.org/2000/svg">
<g opacity="0.8" clip-path="url(#clip0_1561_2744)">
<path d="M25.1467 14.0696L19.9492 11.6771V4.82209C19.9468 4.67827 19.9031 4.53818 19.8234 4.4185C19.7436 4.29882 19.6311 4.20461 19.4992 4.14709L13.8742 1.55959C13.7755 1.5139 13.668 1.49023 13.5592 1.49023C13.4504 1.49023 13.3429 1.5139 13.2442 1.55959L7.61922 4.14709C7.48904 4.20734 7.37886 4.30366 7.30176 4.42463C7.22466 4.5456 7.18387 4.68614 7.18422 4.82959V11.6846L2.00922 14.0696C1.87904 14.1298 1.76886 14.2262 1.69176 14.3471C1.61466 14.4681 1.57387 14.6086 1.57422 14.7521V22.0871C1.57387 22.2305 1.61466 22.3711 1.69176 22.4921C1.76886 22.613 1.87904 22.7093 2.00922 22.7696L7.63422 25.3571C7.73295 25.4028 7.84043 25.4264 7.94922 25.4264C8.05801 25.4264 8.16549 25.4028 8.26422 25.3571L13.5742 22.9121L18.8842 25.3571C18.9829 25.4028 19.0904 25.4264 19.1992 25.4264C19.308 25.4264 19.4155 25.4028 19.5142 25.3571L25.1392 22.7696C25.2694 22.7093 25.3796 22.613 25.4567 22.4921C25.5338 22.3711 25.5746 22.2305 25.5742 22.0871V14.7521C25.5752 14.6095 25.5356 14.4695 25.4598 14.3486C25.3841 14.2277 25.2755 14.1309 25.1467 14.0696ZM23.0392 14.7521L19.2067 16.4996L15.3742 14.7521L19.2067 12.9896L23.0392 14.7521ZM13.5742 3.05959L17.4067 4.82209L13.5742 6.58459L9.74922 4.82209L13.5742 3.05959ZM7.94922 12.9821L11.7817 14.7446L7.94922 16.4996L4.11672 14.7521L7.94922 12.9821ZM12.8242 21.5996L7.94922 23.8496L3.07422 21.5996V15.9221L7.63422 17.9996C7.73091 18.0431 7.83571 18.0655 7.94172 18.0655C8.04773 18.0655 8.15253 18.0431 8.24922 17.9996L12.8092 15.8996L12.8242 21.5996ZM8.69922 11.6771V5.99959L13.2592 8.09959C13.3579 8.14528 13.4654 8.16895 13.5742 8.16895C13.683 8.16895 13.7905 8.14528 13.8892 8.09959L18.4492 5.99959V11.6846L13.5742 13.9346L8.69922 11.6771ZM24.0817 21.6071L19.2067 23.8571L14.3242 21.6071V15.9146L18.8917 17.9996C18.9874 18.042 19.0908 18.0639 19.1955 18.0639C19.3001 18.0639 19.4036 18.042 19.4992 17.9996L24.0592 15.8996L24.0817 21.6071Z" fill="#F8F8F8"/>
</g>
<defs>
<clipPath id="clip0_1561_2744">
<rect width="27" height="27" fill="white"/>
</clipPath>
</defs>
</svg>
